# This file uses centimeters as units for non-parametric coordinates.

mtllib test.mtl
g default
v -2.500000 -2.500000 2.500000
v 2.500000 -2.500000 2.500000
v -2.500000 2.500000 2.500000
v 2.500000 2.500000 2.500000
v -2.500000 2.500000 -2.500000
v 2.500000 2.500000 -2.500000
v -2.500000 -2.500000 -2.500000
v 2.500000 -2.500000 -2.500000
v 0.000000 0.000000 2.500000
v 0.000000 -2.500000 2.500000
v 2.500000 0.000000 2.500000
v 0.000000 2.500000 2.500000
v -2.500000 0.000000 2.500000
v 0.000000 2.500000 0.000000
v 2.500000 2.500000 0.000000
v 0.000000 2.500000 -2.500000
v -2.500000 2.500000 0.000000
v 0.000000 0.000000 -2.500000
v 2.500000 0.000000 -2.500000
v 0.000000 -2.500000 -2.500000
v -2.500000 0.000000 -2.500000
v 0.000000 -2.500000 0.000000
v 2.500000 -2.500000 0.000000
v -2.500000 -2.500000 0.000000
v 2.500000 0.000000 0.000000
v -2.500000 0.000000 0.000000
v 2.500000 2.500000 2.500000
v 2.500000 2.500000 0.000000
v 2.500000 0.000000 2.500000
v 2.500000 0.000000 0.000000
v 7.792569 2.500000 -2.500000
v 7.792569 -0.000000 -2.500000
v 7.792569 2.500000 0.000000
v 7.792569 -0.000000 0.000000
v 7.792569 2.500000 2.500000
v 7.792569 2.500000 0.000000
v 7.792569 -0.000000 2.500000
v 7.792569 -0.000000 0.000000
v -8.263154 0.000000 2.500000
v -8.263154 2.500000 2.500000
v -8.263154 2.500000 0.000000
v -8.263154 0.000000 0.000000
v -8.263154 2.500000 -2.500000
v -8.263154 0.000000 -2.500000
v -2.500000 -2.500000 -2.500000
v -2.500000 -2.500000 0.000000
v 0.000000 -2.500000 -2.500000
v 0.000000 -2.500000 0.000000
v 2.500000 -2.500000 0.000000
v 2.500000 -2.500000 2.500000
v 0.000000 -2.500000 2.500000
v 0.000000 -2.500000 0.000000
v 2.500000 -7.258453 0.000000
v 2.500000 -7.258453 2.500000
v 0.000000 -7.258453 2.500000
v 0.000000 -7.258453 0.000000
v -2.500000 -4.355355 -2.500000
v -2.500000 -4.355355 0.000000
v 0.000000 -4.355355 -2.500000
v 0.000000 -4.355355 0.000000
vt 0.375000 0.000000
vt 0.625000 0.000000
vt 0.375000 0.250000
vt 0.625000 0.250000
vt 0.375000 0.500000
vt 0.625000 0.500000
vt 0.375000 0.750000
vt 0.625000 0.750000
vt 0.375000 1.000000
vt 0.625000 1.000000
vt 0.875000 0.000000
vt 0.875000 0.250000
vt 0.125000 0.000000
vt 0.125000 0.250000
vt 0.500000 0.125000
vt 0.500000 0.000000
vt 0.500000 1.000000
vt 0.625000 0.125000
vt 0.500000 0.250000
vt 0.375000 0.125000
vt 0.500000 0.375000
vt 0.625000 0.375000
vt 0.750000 0.250000
vt 0.500000 0.500000
vt 0.250000 0.250000
vt 0.375000 0.375000
vt 0.500000 0.625000
vt 0.625000 0.625000
vt 0.875000 0.125000
vt 0.500000 0.750000
vt 0.125000 0.125000
vt 0.375000 0.625000
vt 0.500000 0.875000
vt 0.625000 0.875000
vt 0.750000 0.000000
vt 0.500000 1.000000
vt 0.250000 0.000000
vt 0.375000 0.875000
vt 0.750000 0.125000
vt 0.750000 0.000000
vt 0.875000 0.125000
vt 0.750000 0.250000
vt 0.250000 0.125000
vt 0.250000 0.000000
vt 0.250000 0.250000
vt 0.125000 0.125000
vt 0.750000 0.250000
vt 0.625000 0.250000
vt 0.625000 0.125000
vt 0.750000 0.125000
vt 0.875000 0.125000
vt 0.875000 0.250000
vt 0.750000 0.250000
vt 0.750000 0.125000
vt 0.750000 0.250000
vt 0.625000 0.250000
vt 0.625000 0.125000
vt 0.750000 0.125000
vt 0.375000 0.125000
vt 0.375000 0.250000
vt 0.250000 0.250000
vt 0.250000 0.125000
vt 0.125000 0.250000
vt 0.125000 0.125000
vt 0.375000 0.875000
vt 0.375000 0.750000
vt 0.500000 0.750000
vt 0.500000 0.875000
vt 0.625000 0.875000
vt 0.625000 1.000000
vt 0.500000 1.000000
vt 0.625000 0.875000
vt 0.625000 1.000000
vt 0.500000 1.000000
vt 0.500000 0.875000
vt 0.375000 0.875000
vt 0.375000 0.750000
vt 0.500000 0.750000
vt 0.500000 0.875000
vn 0.000000 0.000000 1.000000
vn 0.000000 0.000000 1.000000
vn 0.000000 0.000000 1.000000
vn 0.000000 0.000000 1.000000
vn 0.000000 1.000000 0.000000
vn 0.000000 1.000000 0.000000
vn 0.000000 1.000000 0.000000
vn 0.000000 1.000000 0.000000
vn 0.000000 0.000000 -1.000000
vn 0.000000 0.000000 -1.000000
vn 0.000000 0.000000 -1.000000
vn 0.000000 0.000000 -1.000000
vn 0.000000 -1.000000 0.000000
vn 0.000000 -1.000000 0.000000
vn 0.000000 -1.000000 0.000000
vn 0.000000 -1.000000 0.000000
vn 1.000000 0.000000 0.000000
vn 1.000000 0.000000 0.000000
vn 1.000000 0.000000 0.000000
vn 1.000000 0.000000 0.000000
vn -1.000000 0.000000 0.000000
vn -1.000000 0.000000 0.000000
vn -1.000000 0.000000 0.000000
vn -1.000000 0.000000 0.000000
vn 0.000000 0.000000 1.000000
vn 0.000000 0.000000 1.000000
vn 0.000000 0.000000 1.000000
vn 0.000000 0.000000 1.000000
vn 0.000000 0.000000 1.000000
vn 0.000000 0.000000 1.000000
vn 0.000000 0.000000 1.000000
vn 0.000000 0.000000 1.000000
vn 0.000000 0.000000 1.000000
vn 0.000000 0.000000 1.000000
vn 0.000000 0.000000 1.000000
vn 0.000000 0.000000 1.000000
vn 0.000000 1.000000 0.000000
vn 0.000000 1.000000 0.000000
vn 0.000000 1.000000 0.000000
vn 0.000000 1.000000 0.000000
vn 0.000000 1.000000 0.000000
vn 0.000000 1.000000 0.000000
vn 0.000000 1.000000 0.000000
vn 0.000000 1.000000 0.000000
vn 0.000000 1.000000 0.000000
vn 0.000000 1.000000 0.000000
vn 0.000000 1.000000 0.000000
vn 0.000000 0.000000 -1.000000
vn 0.000000 0.000000 -1.000000
vn 0.000000 0.000000 -1.000000
vn 0.000000 0.000000 -1.000000
vn 0.000000 0.000000 -1.000000
vn 0.000000 0.000000 -1.000000
vn 0.000000 0.000000 -1.000000
vn 0.000000 0.000000 -1.000000
vn 0.000000 0.000000 -1.000000
vn 0.000000 0.000000 -1.000000
vn 0.000000 0.000000 -1.000000
vn 0.000000 0.000000 -1.000000
vn 0.000000 -1.000000 0.000000
vn 0.000000 -1.000000 0.000000
vn 0.000000 -1.000000 0.000000
vn 0.000000 -1.000000 0.000000
vn 0.000000 -1.000000 0.000000
vn 0.000000 -1.000000 0.000000
vn 0.000000 -1.000000 0.000000
vn 0.000000 -1.000000 0.000000
vn 0.000000 -1.000000 0.000000
vn 0.000000 -1.000000 0.000000
vn 0.000000 -1.000000 0.000000
vn 0.000000 -1.000000 0.000000
vn 1.000000 0.000000 0.000000
vn 1.000000 0.000000 0.000000
vn 1.000000 0.000000 0.000000
vn 1.000000 0.000000 0.000000
vn 1.000000 0.000000 0.000000
vn 1.000000 0.000000 0.000000
vn 1.000000 0.000000 0.000000
vn 1.000000 0.000000 0.000000
vn 1.000000 0.000000 0.000000
vn 1.000000 0.000000 0.000000
vn 1.000000 0.000000 0.000000
vn 1.000000 0.000000 0.000000
vn -1.000000 0.000000 0.000000
vn -1.000000 0.000000 0.000000
vn -1.000000 0.000000 0.000000
vn -1.000000 0.000000 0.000000
vn -1.000000 0.000000 0.000000
vn -1.000000 0.000000 0.000000
vn -1.000000 0.000000 0.000000
vn -1.000000 0.000000 0.000000
vn -1.000000 0.000000 0.000000
vn -1.000000 0.000000 0.000000
vn -1.000000 0.000000 0.000000
vn -1.000000 0.000000 0.000000
vn 0.000000 0.000000 0.000000
vn 0.000000 0.000000 0.000000
vn 0.000000 0.000000 0.000000
vn 0.000000 0.000000 0.000000
vn 0.000000 0.000000 0.000000
vn 0.000000 0.000000 0.000000
vn 0.000000 0.000000 0.000000
vn 0.000000 0.000000 0.000000
vn 0.000000 0.000000 0.000000
vn 0.000000 0.000000 0.000000
vn 0.000000 0.000000 0.000000
vn 0.000000 0.000000 0.000000
vn 0.000000 0.000000 0.000000
vn 0.000000 0.000000 0.000000
vn 0.000000 0.000000 0.000000
vn 0.000000 0.000000 0.000000
vn 0.000000 0.000000 -1.000000
vn 0.000000 0.000000 -1.000000
vn 0.000000 1.000000 0.000000
vn 0.000000 1.000000 0.000000
vn 0.000000 0.000000 1.000000
vn 0.000000 0.000000 1.000000
vn 0.000000 0.000000 1.000000
vn 0.000000 0.000000 1.000000
vn -0.000000 -1.000000 0.000000
vn -0.000000 -1.000000 0.000000
vn -0.000000 -1.000000 0.000000
vn -0.000000 -1.000000 0.000000
vn 0.000000 1.000000 0.000000
vn 0.000000 1.000000 0.000000
vn 0.000000 1.000000 0.000000
vn 0.000000 1.000000 0.000000
vn 0.000000 0.000000 1.000000
vn 0.000000 0.000000 1.000000
vn 0.000000 0.000000 1.000000
vn 0.000000 0.000000 1.000000
vn -0.000000 -1.000000 0.000000
vn -0.000000 -1.000000 0.000000
vn -0.000000 -1.000000 0.000000
vn -0.000000 -1.000000 0.000000
vn 0.000000 0.000000 -1.000000
vn 0.000000 0.000000 -1.000000
vn 0.000000 0.000000 -1.000000
vn 0.000000 0.000000 -1.000000
vn 0.000000 0.000000 1.000000
vn 0.000000 0.000000 1.000000
vn 0.000000 1.000000 0.000000
vn 0.000000 1.000000 0.000000
vn 0.000000 -1.000000 0.000000
vn 0.000000 -1.000000 0.000000
vn 0.000000 -1.000000 0.000000
vn 0.000000 -1.000000 0.000000
vn 0.000000 1.000000 0.000000
vn 0.000000 0.000000 -1.000000
vn 0.000000 0.000000 -1.000000
vn 0.000000 -1.000000 0.000000
vn 0.000000 -1.000000 0.000000
vn 0.000000 0.000000 0.000000
vn 0.000000 0.000000 0.000000
vn 0.000000 0.000000 0.000000
vn 0.000000 0.000000 0.000000
vn 0.000000 0.000000 0.000000
vn 0.000000 0.000000 0.000000
vn 0.000000 0.000000 0.000000
vn 0.000000 0.000000 0.000000
vn 0.000000 0.000000 0.000000
vn 0.000000 0.000000 0.000000
vn 0.000000 0.000000 0.000000
vn 0.000000 0.000000 0.000000
vn 0.000000 0.000000 0.000000
vn 0.000000 0.000000 0.000000
vn 0.000000 0.000000 0.000000
vn 0.000000 0.000000 0.000000
vn 0.000000 0.000000 0.000000
vn 0.000000 0.000000 0.000000
vn 0.000000 0.000000 0.000000
vn 0.000000 0.000000 0.000000
vn 0.000000 0.000000 0.000000
vn 0.000000 0.000000 0.000000
vn 0.000000 0.000000 0.000000
vn 0.000000 0.000000 0.000000
vn 0.000000 0.000000 0.000000
vn 0.000000 0.000000 0.000000
vn 0.000000 0.000000 0.000000
vn 0.000000 0.000000 0.000000
vn 0.000000 0.000000 0.000000
vn 0.000000 0.000000 0.000000
vn 0.000000 0.000000 0.000000
vn 0.000000 0.000000 0.000000
vn 1.000000 0.000000 0.000000
vn 1.000000 0.000000 0.000000
vn 1.000000 0.000000 0.000000
vn 1.000000 0.000000 0.000000
vn 0.000000 0.000000 1.000000
vn 0.000000 0.000000 1.000000
vn 0.000000 0.000000 1.000000
vn 0.000000 0.000000 1.000000
vn -1.000000 0.000000 0.000000
vn -1.000000 0.000000 0.000000
vn -1.000000 0.000000 0.000000
vn -1.000000 0.000000 0.000000
vn 0.000000 0.000000 -1.000000
vn 0.000000 0.000000 -1.000000
vn 0.000000 0.000000 -1.000000
vn 0.000000 0.000000 -1.000000
vn -1.000000 0.000000 0.000000
vn -1.000000 0.000000 0.000000
vn -1.000000 0.000000 0.000000
vn -1.000000 0.000000 0.000000
vn 0.000000 0.000000 -1.000000
vn 0.000000 0.000000 -1.000000
vn 0.000000 0.000000 -1.000000
vn 0.000000 0.000000 -1.000000
vn 1.000000 0.000000 0.000000
vn 1.000000 0.000000 0.000000
vn 1.000000 0.000000 0.000000
vn 1.000000 0.000000 0.000000
vn 0.000000 0.000000 1.000000
vn 0.000000 0.000000 1.000000
vn 0.000000 0.000000 1.000000
vn 0.000000 0.000000 1.000000
s 1
g test
usemtl initialShadingGroup
f 13/20/1 1/1/2 9/15/3
f 9/15/3 1/1/2 10/16/4
s 2
f 17/26/5 3/3/6 14/21/7
f 14/21/7 3/3/6 12/19/8
s 3
f 21/32/9 5/5/10 18/27/11
f 18/27/11 5/5/10 16/24/12
s 4
f 58/76/13 57/77/14 60/79/15
f 60/79/15 57/77/14 59/78/16
s 5
f 11/18/17 2/2/18 25/39/19
f 25/39/19 2/2/18 23/40/20
s 6
f 21/46/21 7/13/22 26/43/23
f 26/43/23 7/13/22 24/44/24
s 7
f 10/16/25 2/2/26 9/15/27
f 9/15/27 2/2/26 11/18/28
s 8
f 11/18/29 4/4/30 9/15/31
f 9/15/31 4/4/30 12/19/32
s 9
f 12/19/33 3/3/34 9/15/35
f 9/15/35 3/3/34 13/20/36
s 10
f 12/19/37 4/4/38 14/21/39
f 14/21/39 4/4/38 15/22/40
s 11
f 15/22/41 6/6/42 14/21/43
f 14/21/43 6/6/42 16/24/44
s 2
f 16/24/45 5/5/46 14/21/47
f 14/21/47 5/5/46 17/26/5
s 13
f 16/24/48 6/6/49 18/27/50
f 18/27/50 6/6/49 19/28/51
s 14
f 19/28/52 8/8/53 18/27/54
f 18/27/54 8/8/53 20/30/55
s 15
f 20/30/56 7/7/57 18/27/58
f 18/27/58 7/7/57 21/32/59
s 16
f 20/30/60 8/8/61 22/33/62
f 22/33/62 8/8/61 23/34/63
s 17
f 53/72/64 54/73/65 56/75/66
f 56/75/66 54/73/65 55/74/67
s 18
f 10/36/68 1/9/69 22/33/70
f 22/33/70 1/9/69 24/38/71
s 19
f 23/40/72 8/11/73 25/39/74
f 25/39/74 8/11/73 19/41/75
s 20
f 32/51/76 31/52/77 34/54/78
f 34/54/78 31/52/77 33/53/79
s 21
f 36/55/80 35/56/81 38/58/82
f 38/58/82 35/56/81 37/57/83
s 22
f 24/44/84 1/1/85 26/43/86
f 26/43/86 1/1/85 13/20/87
s 23
f 39/59/88 40/60/89 42/62/90
f 42/62/90 40/60/89 41/61/91
s 24
f 41/61/92 43/63/93 42/62/94
f 42/62/94 43/63/93 44/64/95
s 25
f 28/47/96 15/42/97 27/48/98
f 15/42/97 4/4/99 27/48/98
s 26
f 27/48/100 4/4/101 29/49/102
f 4/4/101 11/18/103 29/49/102
s 27
f 29/49/104 11/18/105 30/50/106
f 11/18/105 25/39/107 30/50/106
s 28
f 30/50/108 25/39/109 28/47/110
f 25/39/109 15/42/111 28/47/110
s 13
f 19/41/51 6/12/49 32/51/112
f 32/51/112 6/12/49 31/52/113
s 11
f 6/12/42 15/42/41 31/52/114
f 31/52/114 15/42/41 33/53/115
s 29
f 15/42/116 25/39/117 33/53/118
f 33/53/118 25/39/117 34/54/119
s 30
f 25/39/120 19/41/121 34/54/122
f 34/54/122 19/41/121 32/51/123
s 31
f 28/47/124 27/48/125 36/55/126
f 36/55/126 27/48/125 35/56/127
s 32
f 27/48/128 29/49/129 35/56/130
f 35/56/130 29/49/129 37/57/131
s 33
f 29/49/132 30/50/133 37/57/134
f 37/57/134 30/50/133 38/58/135
s 34
f 30/50/136 28/47/137 38/58/138
f 38/58/138 28/47/137 36/55/139
s 9
f 13/20/36 3/3/34 39/59/140
f 39/59/140 3/3/34 40/60/141
s 2
f 3/3/6 17/45/5 40/60/142
f 40/60/142 17/45/5 41/61/143
s 35
f 26/43/144 13/20/145 42/62/146
f 42/62/146 13/20/145 39/59/147
s 2
f 17/45/5 5/14/46 41/61/143
f 41/61/143 5/14/46 43/63/148
s 3
f 5/14/10 21/46/9 43/63/149
f 43/63/149 21/46/9 44/64/150
s 35
f 21/46/151 26/43/144 44/64/152
f 44/64/152 26/43/144 42/62/146
s 36
f 46/65/153 24/38/154 45/66/155
f 24/38/154 7/7/156 45/66/155
s 37
f 45/66/157 7/7/158 47/67/159
f 7/7/158 20/30/160 47/67/159
s 38
f 47/67/161 20/30/162 48/68/163
f 20/30/162 22/33/164 48/68/163
s 39
f 48/68/165 22/33/166 46/65/167
f 22/33/166 24/38/168 46/65/167
s 40
f 49/69/169 23/34/170 50/70/171
f 23/34/170 2/10/172 50/70/171
s 41
f 50/70/173 2/10/174 51/71/175
f 2/10/174 10/36/176 51/71/175
s 42
f 51/71/177 10/36/178 52/68/179
f 10/36/178 22/33/180 52/68/179
s 43
f 52/68/181 22/33/182 49/69/183
f 22/33/182 23/34/184 49/69/183
s 44
f 49/69/185 50/70/186 53/72/187
f 53/72/187 50/70/186 54/73/188
s 45
f 50/70/189 51/71/190 54/73/191
f 54/73/191 51/71/190 55/74/192
s 46
f 51/71/193 52/68/194 55/74/195
f 55/74/195 52/68/194 56/75/196
s 47
f 52/68/197 49/69/198 56/75/199
f 56/75/199 49/69/198 53/72/200
s 48
f 46/65/201 45/66/202 58/76/203
f 58/76/203 45/66/202 57/77/204
s 49
f 45/66/205 47/67/206 57/77/207
f 57/77/207 47/67/206 59/78/208
s 50
f 47/67/209 48/68/210 59/78/211
f 59/78/211 48/68/210 60/79/212
s 51
f 48/68/213 46/65/214 60/79/215
f 60/79/215 46/65/214 58/76/216
